<svg width="159" height="44" viewBox="0 0 159 44" fill="none" xmlns="http://www.w3.org/2000/svg">
<rect width="159" height="44" rx="6" fill="#6366F1"/>
<path d="M29.2274 27V16.92H30.6904V25.621H35.2544V27H29.2274ZM39.7959 27.21C39.0446 27.21 38.3842 27.0467 37.8149 26.72C37.2502 26.3887 36.8092 25.929 36.4919 25.341C36.1792 24.7483 36.0229 24.0623 36.0229 23.283C36.0229 22.457 36.1769 21.7407 36.4849 21.134C36.7976 20.5273 37.2316 20.0583 37.7869 19.727C38.3422 19.3957 38.9886 19.23 39.7259 19.23C40.4959 19.23 41.1516 19.4097 41.6929 19.769C42.2342 20.1237 42.6379 20.63 42.9039 21.288C43.1746 21.946 43.2819 22.7277 43.2259 23.633H41.7629V23.101C41.7536 22.2237 41.5856 21.575 41.2589 21.155C40.9369 20.735 40.4446 20.525 39.7819 20.525C39.0492 20.525 38.4986 20.756 38.1299 21.218C37.7612 21.68 37.5769 22.3473 37.5769 23.22C37.5769 24.0507 37.7612 24.6947 38.1299 25.152C38.4986 25.6047 39.0306 25.831 39.7259 25.831C40.1832 25.831 40.5776 25.7283 40.9089 25.523C41.2449 25.313 41.5062 25.0143 41.6929 24.627L43.1279 25.082C42.8339 25.7587 42.3882 26.2837 41.7909 26.657C41.1936 27.0257 40.5286 27.21 39.7959 27.21ZM37.1009 23.633V22.492H42.4979V23.633H37.1009ZM46.7947 27.21C46.2347 27.21 45.7657 27.1073 45.3877 26.902C45.0097 26.692 44.7227 26.4167 44.5267 26.076C44.3354 25.7307 44.2397 25.3527 44.2397 24.942C44.2397 24.5593 44.3074 24.2233 44.4427 23.934C44.578 23.6447 44.7787 23.3997 45.0447 23.199C45.3107 22.9937 45.6374 22.828 46.0247 22.702C46.3607 22.604 46.741 22.5177 47.1657 22.443C47.5904 22.3683 48.036 22.2983 48.5027 22.233C48.974 22.1677 49.4407 22.1023 49.9027 22.037L49.3707 22.331C49.38 21.7383 49.254 21.2997 48.9927 21.015C48.736 20.7257 48.2927 20.581 47.6627 20.581C47.266 20.581 46.902 20.6743 46.5707 20.861C46.2394 21.043 46.0084 21.3463 45.8777 21.771L44.5127 21.351C44.6994 20.7023 45.054 20.1867 45.5767 19.804C46.104 19.4213 46.804 19.23 47.6767 19.23C48.3534 19.23 48.9414 19.3467 49.4407 19.58C49.9447 19.8087 50.3134 20.1727 50.5467 20.672C50.668 20.9193 50.7427 21.1807 50.7707 21.456C50.7987 21.7313 50.8127 22.0277 50.8127 22.345V27H49.5177V25.271L49.7697 25.495C49.457 26.0737 49.058 26.5053 48.5727 26.79C48.092 27.07 47.4994 27.21 46.7947 27.21ZM47.0537 26.013C47.469 26.013 47.826 25.9407 48.1247 25.796C48.4234 25.6467 48.6637 25.4577 48.8457 25.229C49.0277 25.0003 49.1467 24.7623 49.2027 24.515C49.282 24.291 49.3264 24.039 49.3357 23.759C49.3497 23.479 49.3567 23.255 49.3567 23.087L49.8327 23.262C49.3707 23.332 48.9507 23.395 48.5727 23.451C48.1947 23.507 47.8517 23.563 47.5437 23.619C47.2404 23.6703 46.9697 23.7333 46.7317 23.808C46.531 23.878 46.3514 23.962 46.1927 24.06C46.0387 24.158 45.915 24.277 45.8217 24.417C45.733 24.557 45.6887 24.7273 45.6887 24.928C45.6887 25.124 45.7377 25.306 45.8357 25.474C45.9337 25.6373 46.083 25.768 46.2837 25.866C46.4844 25.964 46.741 26.013 47.0537 26.013ZM52.6304 27V19.44H53.9324V21.274L53.7504 21.036C53.8437 20.7933 53.9651 20.5717 54.1144 20.371C54.2637 20.1657 54.4364 19.9977 54.6324 19.867C54.8237 19.727 55.0361 19.6197 55.2694 19.545C55.5074 19.4657 55.7501 19.419 55.9974 19.405C56.2447 19.3863 56.4827 19.398 56.7114 19.44V20.812C56.4641 20.7467 56.1887 20.728 55.8854 20.756C55.5867 20.784 55.3114 20.8797 55.0594 21.043C54.8214 21.197 54.6324 21.3837 54.4924 21.603C54.3571 21.8223 54.2591 22.0673 54.1984 22.338C54.1377 22.604 54.1074 22.8863 54.1074 23.185V27H52.6304ZM63.3505 27V23.283C63.3505 22.989 63.3248 22.688 63.2735 22.38C63.2268 22.0673 63.1335 21.778 62.9935 21.512C62.8581 21.246 62.6645 21.0313 62.4125 20.868C62.1651 20.7047 61.8408 20.623 61.4395 20.623C61.1781 20.623 60.9308 20.6673 60.6975 20.756C60.4641 20.84 60.2588 20.9777 60.0815 21.169C59.9088 21.3603 59.7711 21.6123 59.6685 21.925C59.5705 22.2377 59.5215 22.618 59.5215 23.066L58.6115 22.723C58.6115 22.037 58.7398 21.4327 58.9965 20.91C59.2531 20.3827 59.6218 19.972 60.1025 19.678C60.5831 19.384 61.1641 19.237 61.8455 19.237C62.3681 19.237 62.8068 19.321 63.1615 19.489C63.5161 19.657 63.8031 19.8787 64.0225 20.154C64.2465 20.4247 64.4168 20.721 64.5335 21.043C64.6501 21.365 64.7295 21.68 64.7715 21.988C64.8135 22.296 64.8345 22.5667 64.8345 22.8V27H63.3505ZM58.0375 27V19.44H59.3465V21.624H59.5215V27H58.0375ZM78.5185 27L78.5255 22.289C78.5255 21.743 78.3855 21.3183 78.1055 21.015C77.8255 20.707 77.4568 20.553 76.9995 20.553C76.7195 20.553 76.4628 20.6183 76.2295 20.749C76.0008 20.875 75.8141 21.0663 75.6695 21.323C75.5295 21.575 75.4595 21.8923 75.4595 22.275L74.7525 21.918C74.7431 21.386 74.8551 20.9193 75.0885 20.518C75.3265 20.1167 75.6485 19.8063 76.0545 19.587C76.4605 19.363 76.9155 19.251 77.4195 19.251C78.2361 19.251 78.8685 19.496 79.3165 19.986C79.7645 20.476 79.9885 21.127 79.9885 21.939L79.9815 27H78.5185ZM69.4535 27V19.44H70.7555V21.624H70.9235V27H69.4535ZM73.9895 27L73.9965 22.317C73.9965 21.7663 73.8565 21.3347 73.5765 21.022C73.3011 20.7093 72.9301 20.553 72.4635 20.553C72.0015 20.553 71.6281 20.7117 71.3435 21.029C71.0635 21.3463 70.9235 21.7617 70.9235 22.275L70.2235 21.827C70.2235 21.3323 70.3425 20.8913 70.5805 20.504C70.8185 20.1167 71.1405 19.811 71.5465 19.587C71.9525 19.363 72.4121 19.251 72.9255 19.251C73.4621 19.251 73.9195 19.3653 74.2975 19.594C74.6755 19.818 74.9625 20.133 75.1585 20.539C75.3591 20.945 75.4595 21.4163 75.4595 21.953L75.4525 27H73.9895ZM84.9935 27.21C84.2375 27.21 83.5818 27.0397 83.0265 26.699C82.4711 26.3583 82.0418 25.8893 81.7385 25.292C81.4398 24.69 81.2905 23.997 81.2905 23.213C81.2905 22.4243 81.4445 21.7313 81.7525 21.134C82.0605 20.532 82.4921 20.0653 83.0475 19.734C83.6028 19.398 84.2515 19.23 84.9935 19.23C85.7495 19.23 86.4051 19.4003 86.9605 19.741C87.5158 20.0817 87.9451 20.5507 88.2485 21.148C88.5518 21.7453 88.7035 22.4337 88.7035 23.213C88.7035 24.0017 88.5495 24.697 88.2415 25.299C87.9381 25.8963 87.5088 26.3653 86.9535 26.706C86.3981 27.042 85.7448 27.21 84.9935 27.21ZM84.9935 25.831C85.7168 25.831 86.2558 25.5883 86.6105 25.103C86.9698 24.613 87.1495 23.983 87.1495 23.213C87.1495 22.4243 86.9675 21.7943 86.6035 21.323C86.2441 20.847 85.7075 20.609 84.9935 20.609C84.5035 20.609 84.0998 20.721 83.7825 20.945C83.4651 21.1643 83.2295 21.47 83.0755 21.862C82.9215 22.2493 82.8445 22.6997 82.8445 23.213C82.8445 24.0063 83.0265 24.641 83.3905 25.117C83.7545 25.593 84.2888 25.831 84.9935 25.831ZM90.2417 27V19.44H91.5437V21.274L91.3617 21.036C91.4551 20.7933 91.5764 20.5717 91.7257 20.371C91.8751 20.1657 92.0477 19.9977 92.2437 19.867C92.4351 19.727 92.6474 19.6197 92.8807 19.545C93.1187 19.4657 93.3614 19.419 93.6087 19.405C93.8561 19.3863 94.0941 19.398 94.3227 19.44V20.812C94.0754 20.7467 93.8001 20.728 93.4967 20.756C93.1981 20.784 92.9227 20.8797 92.6707 21.043C92.4327 21.197 92.2437 21.3837 92.1037 21.603C91.9684 21.8223 91.8704 22.0673 91.8097 22.338C91.7491 22.604 91.7187 22.8863 91.7187 23.185V27H90.2417ZM98.8721 27.21C98.1207 27.21 97.4604 27.0467 96.8911 26.72C96.3264 26.3887 95.8854 25.929 95.5681 25.341C95.2554 24.7483 95.0991 24.0623 95.0991 23.283C95.0991 22.457 95.2531 21.7407 95.5611 21.134C95.8737 20.5273 96.3077 20.0583 96.8631 19.727C97.4184 19.3957 98.0647 19.23 98.8021 19.23C99.5721 19.23 100.228 19.4097 100.769 19.769C101.31 20.1237 101.714 20.63 101.98 21.288C102.251 21.946 102.358 22.7277 102.302 23.633H100.839V23.101C100.83 22.2237 100.662 21.575 100.335 21.155C100.013 20.735 99.5207 20.525 98.8581 20.525C98.1254 20.525 97.5747 20.756 97.2061 21.218C96.8374 21.68 96.6531 22.3473 96.6531 23.22C96.6531 24.0507 96.8374 24.6947 97.2061 25.152C97.5747 25.6047 98.1067 25.831 98.8021 25.831C99.2594 25.831 99.6537 25.7283 99.9851 25.523C100.321 25.313 100.582 25.0143 100.769 24.627L102.204 25.082C101.91 25.7587 101.464 26.2837 100.867 26.657C100.27 27.0257 99.6047 27.21 98.8721 27.21ZM96.1771 23.633V22.492H101.574V23.633H96.1771Z" fill="white"/>
<path d="M120.411 26.4108L121.589 27.5892L127.178 22L121.589 16.4108L120.411 17.5892L123.988 21.1667H116V22.8333H123.988L120.411 26.4108Z" fill="white"/>
</svg>
