<svg width="204" height="108" viewBox="0 0 204 108" fill="none" xmlns="http://www.w3.org/2000/svg">
<g filter="url(#filter0_d_4632_11189)">
<rect x="4" width="196" height="100" rx="8" fill="white" shape-rendering="crispEdges"/>
<rect x="4.5" y="0.5" width="195" height="99" rx="7.5" stroke="#E2E5F1" shape-rendering="crispEdges"/>
<path d="M45.9414 62.8251H71.5914V37.175H45.9414V62.8251ZM66.6544 47.532H61.2344V42.112H66.6544V47.532ZM50.8774 42.112H56.3004V52.468H66.6544V57.8881H50.8774V42.112ZM88.2944 37.175C85.7578 37.175 83.2782 37.9272 81.1692 39.3365C79.0601 40.7457 77.4163 42.7487 76.4456 45.0921C75.4749 47.4356 75.221 50.0142 75.7158 52.502C76.2107 54.9898 77.4321 57.275 79.2257 59.0686C81.0193 60.8623 83.3045 62.0837 85.7923 62.5786C88.2802 63.0735 90.8588 62.8195 93.2023 61.8489C95.5458 60.8782 97.5487 59.2344 98.958 57.1252C100.367 55.0161 101.119 52.5365 101.119 50C101.115 46.5998 99.7629 43.3401 97.3586 40.9358C94.9543 38.5315 91.6946 37.179 88.2944 37.175ZM88.2944 57.8881C86.7343 57.8881 85.2092 57.4254 83.912 56.5586C82.6149 55.6919 81.6038 54.46 81.0068 53.0186C80.4098 51.5773 80.2536 49.9913 80.5579 48.4611C80.8623 46.931 81.6136 45.5255 82.7167 44.4224C83.8199 43.3192 85.2254 42.568 86.7555 42.2636C88.2856 41.9593 89.8716 42.1155 91.313 42.7125C92.7543 43.3095 93.9863 44.3205 94.853 45.6177C95.7198 46.9148 96.1824 48.4399 96.1824 50C96.1792 52.0911 95.3471 54.0956 93.8685 55.5742C92.3899 57.0528 90.3854 57.8848 88.2944 57.8881ZM147.013 37.175C144.476 37.1749 141.997 37.9269 139.888 39.336C137.779 40.7451 136.135 42.748 135.164 45.0914C134.193 47.4348 133.939 50.0136 134.434 52.5014C134.928 54.9893 136.15 57.2747 137.943 59.0683C139.737 60.862 142.022 62.0837 144.51 62.5786C146.997 63.0735 149.576 62.8195 151.92 61.8489C154.263 60.8783 156.266 59.2344 157.675 57.1253C159.085 55.0162 159.837 52.5366 159.837 50C159.833 46.6 158.481 43.3404 156.077 40.9361C153.673 38.5319 150.413 37.1793 147.013 37.175ZM147.013 57.8881C145.453 57.8883 143.928 57.4257 142.631 56.5591C141.334 55.6925 140.322 54.4606 139.725 53.0193C139.128 51.578 138.972 49.9919 139.276 48.4617C139.58 46.9316 140.331 45.526 141.434 44.4227C142.538 43.3195 143.943 42.5681 145.473 42.2637C147.003 41.9592 148.589 42.1154 150.03 42.7124C151.472 43.3094 152.704 44.3204 153.571 45.6176C154.437 46.9148 154.9 48.4399 154.9 50C154.897 52.0909 154.065 54.0952 152.586 55.5738C151.108 57.0524 149.104 57.8846 147.013 57.8881ZM117.653 37.175C115.117 37.175 112.637 37.9272 110.528 39.3365C108.419 40.7457 106.775 42.7487 105.805 45.0921C104.834 47.4356 104.58 50.0142 105.075 52.502C105.57 54.9898 106.791 57.275 108.585 59.0686C110.378 60.8623 112.664 62.0837 115.151 62.5786C117.639 63.0735 120.218 62.8195 122.561 61.8489C124.905 60.8782 126.908 59.2344 128.317 57.1252C129.726 55.0161 130.478 52.5365 130.478 50C130.474 46.5998 129.122 43.3401 126.718 40.9358C124.313 38.5315 121.054 37.179 117.653 37.175ZM117.653 57.8881C116.2 57.8888 114.774 57.4879 113.534 56.7295C112.294 55.9712 111.288 54.8852 110.626 53.591C109.965 52.2968 109.673 50.8448 109.785 49.3956C109.896 47.9463 110.406 46.556 111.257 45.3781C112.109 44.2003 113.27 43.2807 114.611 42.7208C115.952 42.1608 117.422 41.9825 118.859 42.2053C120.295 42.4281 121.642 43.0435 122.751 43.9835C123.859 44.9234 124.687 46.1515 125.141 47.532H117.653V52.468H125.141C124.621 54.0433 123.617 55.4148 122.273 56.3876C120.929 57.3605 119.313 57.8853 117.653 57.8881Z" fill="#B4B7C9"/>
</g>
<defs>
<filter id="filter0_d_4632_11189" x="0" y="0" width="204" height="108" filterUnits="userSpaceOnUse" color-interpolation-filters="sRGB">
<feFlood flood-opacity="0" result="BackgroundImageFix"/>
<feColorMatrix in="SourceAlpha" type="matrix" values="0 0 0 0 0 0 0 0 0 0 0 0 0 0 0 0 0 0 127 0" result="hardAlpha"/>
<feOffset dy="4"/>
<feGaussianBlur stdDeviation="2"/>
<feComposite in2="hardAlpha" operator="out"/>
<feColorMatrix type="matrix" values="0 0 0 0 0 0 0 0 0 0 0 0 0 0 0 0 0 0 0.25 0"/>
<feBlend mode="normal" in2="BackgroundImageFix" result="effect1_dropShadow_4632_11189"/>
<feBlend mode="normal" in="SourceGraphic" in2="effect1_dropShadow_4632_11189" result="shape"/>
</filter>
</defs>
</svg>
