<svg width="142" height="52" viewBox="0 0 142 52" fill="none" xmlns="http://www.w3.org/2000/svg">
<path d="M0 0H134C138.418 0 142 3.58172 142 8V44C142 48.4183 138.418 52 134 52H0V0Z" fill="#6366F1"/>
<path d="M37.7491 32.24C36.9225 32.24 36.1758 32.0987 35.5091 31.816C34.8478 31.528 34.3011 31.12 33.8691 30.592C33.4425 30.0587 33.1651 29.4267 33.0371 28.696L34.7811 28.432C34.9571 29.136 35.3251 29.6853 35.8851 30.08C36.4451 30.4693 37.0985 30.664 37.8451 30.664C38.3091 30.664 38.7358 30.592 39.1251 30.448C39.5145 30.2987 39.8265 30.088 40.0611 29.816C40.3011 29.5387 40.4211 29.208 40.4211 28.824C40.4211 28.616 40.3838 28.432 40.3091 28.272C40.2398 28.112 40.1411 27.9733 40.0131 27.856C39.8905 27.7333 39.7385 27.6293 39.5571 27.544C39.3811 27.4533 39.1865 27.376 38.9731 27.312L36.0211 26.44C35.7331 26.3547 35.4398 26.2453 35.1411 26.112C34.8425 25.9733 34.5678 25.7947 34.3171 25.576C34.0718 25.352 33.8718 25.0773 33.7171 24.752C33.5625 24.4213 33.4851 24.0213 33.4851 23.552C33.4851 22.8427 33.6665 22.2427 34.0291 21.752C34.3971 21.256 34.8931 20.8827 35.5171 20.632C36.1411 20.376 36.8398 20.248 37.6131 20.248C38.3918 20.2587 39.0878 20.3973 39.7011 20.664C40.3198 20.9307 40.8318 21.3147 41.2371 21.816C41.6478 22.312 41.9305 22.9147 42.0851 23.624L40.2931 23.928C40.2131 23.496 40.0425 23.1253 39.7811 22.816C39.5198 22.5013 39.1998 22.2613 38.8211 22.096C38.4425 21.9253 38.0318 21.8373 37.5891 21.832C37.1625 21.8213 36.7705 21.8853 36.4131 22.024C36.0611 22.1627 35.7785 22.3573 35.5651 22.608C35.3571 22.8587 35.2531 23.1467 35.2531 23.472C35.2531 23.792 35.3465 24.0507 35.5331 24.248C35.7198 24.4453 35.9491 24.6027 36.2211 24.72C36.4985 24.832 36.7731 24.9253 37.0451 25L39.1731 25.6C39.4398 25.6747 39.7411 25.776 40.0771 25.904C40.4185 26.0267 40.7465 26.2 41.0611 26.424C41.3811 26.648 41.6451 26.9467 41.8531 27.32C42.0611 27.688 42.1651 28.152 42.1651 28.712C42.1651 29.2933 42.0478 29.8053 41.8131 30.248C41.5785 30.6853 41.2558 31.0533 40.8451 31.352C40.4398 31.6453 39.9705 31.8667 39.4371 32.016C38.9038 32.1653 38.3411 32.24 37.7491 32.24ZM47.126 32.232C46.5287 32.232 46.0273 32.136 45.622 31.944C45.2167 31.752 44.886 31.5013 44.63 31.192C44.3793 30.8773 44.1873 30.536 44.054 30.168C43.9207 29.8 43.83 29.44 43.782 29.088C43.734 28.736 43.71 28.4267 43.71 28.16V23.36H45.406V27.608C45.406 27.944 45.4327 28.2907 45.486 28.648C45.5447 29 45.6513 29.328 45.806 29.632C45.966 29.936 46.1873 30.1813 46.47 30.368C46.758 30.5547 47.1313 30.648 47.59 30.648C47.8887 30.648 48.1713 30.6 48.438 30.504C48.7047 30.4027 48.9367 30.2427 49.134 30.024C49.3367 29.8053 49.494 29.5173 49.606 29.16C49.7233 28.8027 49.782 28.368 49.782 27.856L50.822 28.248C50.822 29.032 50.6753 29.7253 50.382 30.328C50.0887 30.9253 49.6673 31.392 49.118 31.728C48.5687 32.064 47.9047 32.232 47.126 32.232ZM49.982 32V29.504H49.782V23.36H51.47V32H49.982ZM57.7698 32.24C56.9431 32.24 56.2498 32.04 55.6898 31.64C55.1298 31.2347 54.7058 30.688 54.4178 30C54.1298 29.312 53.9858 28.536 53.9858 27.672C53.9858 26.808 54.1271 26.032 54.4098 25.344C54.6978 24.656 55.1191 24.1147 55.6738 23.72C56.2338 23.32 56.9218 23.12 57.7378 23.12C58.5484 23.12 59.2471 23.32 59.8338 23.72C60.4258 24.1147 60.8818 24.656 61.2018 25.344C61.5218 26.0267 61.6818 26.8027 61.6818 27.672C61.6818 28.536 61.5218 29.3147 61.2018 30.008C60.8871 30.696 60.4364 31.24 59.8498 31.64C59.2684 32.04 58.5751 32.24 57.7698 32.24ZM53.7058 32V20.48H55.3858V25.784H55.1938V32H53.7058ZM57.5378 30.728C58.0711 30.728 58.5111 30.592 58.8578 30.32C59.2098 30.048 59.4711 29.6827 59.6418 29.224C59.8178 28.76 59.9058 28.2427 59.9058 27.672C59.9058 27.1067 59.8178 26.5947 59.6418 26.136C59.4711 25.6773 59.2071 25.312 58.8498 25.04C58.4924 24.768 58.0364 24.632 57.4818 24.632C56.9591 24.632 56.5271 24.76 56.1858 25.016C55.8498 25.272 55.5991 25.6293 55.4338 26.088C55.2738 26.5467 55.1938 27.0747 55.1938 27.672C55.1938 28.2693 55.2738 28.7973 55.4338 29.256C55.5938 29.7147 55.8471 30.0747 56.1938 30.336C56.5404 30.5973 56.9884 30.728 57.5378 30.728ZM66.5959 32.232C65.5452 32.232 64.6892 32 64.0279 31.536C63.3665 31.072 62.9612 30.4187 62.8119 29.576L64.5239 29.312C64.6305 29.76 64.8759 30.1147 65.2599 30.376C65.6492 30.632 66.1319 30.76 66.7079 30.76C67.2305 30.76 67.6385 30.6533 67.9319 30.44C68.2305 30.2267 68.3799 29.9333 68.3799 29.56C68.3799 29.3413 68.3265 29.1653 68.2199 29.032C68.1185 28.8933 67.9025 28.7627 67.5719 28.64C67.2412 28.5173 66.7372 28.3653 66.0599 28.184C65.3185 27.992 64.7292 27.7867 64.2919 27.568C63.8599 27.344 63.5505 27.0853 63.3639 26.792C63.1825 26.4933 63.0919 26.1333 63.0919 25.712C63.0919 25.1893 63.2305 24.7333 63.5079 24.344C63.7852 23.9547 64.1745 23.6533 64.6759 23.44C65.1825 23.2267 65.7745 23.12 66.4519 23.12C67.1132 23.12 67.7025 23.224 68.2199 23.432C68.7372 23.64 69.1559 23.936 69.4759 24.32C69.7959 24.6987 69.9879 25.144 70.0519 25.656L68.3399 25.968C68.2812 25.552 68.0865 25.224 67.7559 24.984C67.4252 24.744 66.9959 24.6133 66.4679 24.592C65.9612 24.5707 65.5505 24.656 65.2359 24.848C64.9212 25.0347 64.7639 25.2933 64.7639 25.624C64.7639 25.816 64.8225 25.9787 64.9399 26.112C65.0625 26.2453 65.2972 26.3733 65.6439 26.496C65.9905 26.6187 66.5025 26.7653 67.1799 26.936C67.9052 27.1227 68.4812 27.3307 68.9079 27.56C69.3345 27.784 69.6385 28.0533 69.8199 28.368C70.0065 28.6773 70.0999 29.0533 70.0999 29.496C70.0999 30.3493 69.7879 31.0187 69.1639 31.504C68.5452 31.9893 67.6892 32.232 66.5959 32.232ZM75.566 32.24C74.6807 32.24 73.9287 32.0427 73.31 31.648C72.6913 31.2533 72.2167 30.712 71.886 30.024C71.5607 29.336 71.3953 28.5547 71.39 27.68C71.3953 26.7893 71.566 26.0027 71.902 25.32C72.238 24.632 72.718 24.0933 73.342 23.704C73.966 23.3147 74.7153 23.12 75.59 23.12C76.534 23.12 77.3393 23.3547 78.006 23.824C78.678 24.2933 79.1207 24.936 79.334 25.752L77.67 26.232C77.5047 25.7467 77.2327 25.3707 76.854 25.104C76.4807 24.832 76.0513 24.696 75.566 24.696C75.0167 24.696 74.566 24.8267 74.214 25.088C73.862 25.344 73.6007 25.696 73.43 26.144C73.2593 26.592 73.1713 27.104 73.166 27.68C73.1713 28.5707 73.374 29.2907 73.774 29.84C74.1793 30.3893 74.7767 30.664 75.566 30.664C76.1047 30.664 76.5393 30.5413 76.87 30.296C77.206 30.0453 77.462 29.688 77.638 29.224L79.334 29.624C79.0513 30.4667 78.5847 31.1147 77.934 31.568C77.2833 32.016 76.494 32.24 75.566 32.24ZM80.9638 32V23.36H82.4518V25.456L82.2438 25.184C82.3504 24.9067 82.4891 24.6533 82.6598 24.424C82.8304 24.1893 83.0278 23.9973 83.2518 23.848C83.4704 23.688 83.7131 23.5653 83.9798 23.48C84.2518 23.3893 84.5291 23.336 84.8118 23.32C85.0944 23.2987 85.3664 23.312 85.6278 23.36V24.928C85.3451 24.8533 85.0304 24.832 84.6838 24.864C84.3424 24.896 84.0278 25.0053 83.7398 25.192C83.4678 25.368 83.2518 25.5813 83.0918 25.832C82.9371 26.0827 82.8251 26.3627 82.7558 26.672C82.6864 26.976 82.6518 27.2987 82.6518 27.64V32H80.9638ZM87.3113 21.944V20.32H88.9833V21.944H87.3113ZM87.3113 32V23.36H88.9833V32H87.3113ZM95.4416 32.24C94.615 32.24 93.9216 32.04 93.3616 31.64C92.8016 31.2347 92.3776 30.688 92.0896 30C91.8016 29.312 91.6576 28.536 91.6576 27.672C91.6576 26.808 91.799 26.032 92.0816 25.344C92.3696 24.656 92.791 24.1147 93.3456 23.72C93.9056 23.32 94.5936 23.12 95.4096 23.12C96.2203 23.12 96.919 23.32 97.5056 23.72C98.0976 24.1147 98.5536 24.656 98.8736 25.344C99.1936 26.0267 99.3536 26.8027 99.3536 27.672C99.3536 28.536 99.1936 29.3147 98.8736 30.008C98.559 30.696 98.1083 31.24 97.5216 31.64C96.9403 32.04 96.247 32.24 95.4416 32.24ZM91.3776 32V20.48H93.0576V25.784H92.8656V32H91.3776ZM95.2096 30.728C95.743 30.728 96.183 30.592 96.5296 30.32C96.8816 30.048 97.143 29.6827 97.3136 29.224C97.4896 28.76 97.5776 28.2427 97.5776 27.672C97.5776 27.1067 97.4896 26.5947 97.3136 26.136C97.143 25.6773 96.879 25.312 96.5216 25.04C96.1643 24.768 95.7083 24.632 95.1536 24.632C94.631 24.632 94.199 24.76 93.8576 25.016C93.5216 25.272 93.271 25.6293 93.1056 26.088C92.9456 26.5467 92.8656 27.0747 92.8656 27.672C92.8656 28.2693 92.9456 28.7973 93.1056 29.256C93.2656 29.7147 93.519 30.0747 93.8656 30.336C94.2123 30.5973 94.6603 30.728 95.2096 30.728ZM104.952 32.24C104.093 32.24 103.339 32.0533 102.688 31.68C102.043 31.3013 101.539 30.776 101.176 30.104C100.819 29.4267 100.64 28.6427 100.64 27.752C100.64 26.808 100.816 25.9893 101.168 25.296C101.525 24.6027 102.021 24.0667 102.656 23.688C103.291 23.3093 104.029 23.12 104.872 23.12C105.752 23.12 106.501 23.3253 107.12 23.736C107.739 24.1413 108.2 24.72 108.504 25.472C108.813 26.224 108.936 27.1173 108.872 28.152H107.2V27.544C107.189 26.5413 106.997 25.8 106.624 25.32C106.256 24.84 105.693 24.6 104.936 24.6C104.099 24.6 103.469 24.864 103.048 25.392C102.627 25.92 102.416 26.6827 102.416 27.68C102.416 28.6293 102.627 29.3653 103.048 29.888C103.469 30.4053 104.077 30.664 104.872 30.664C105.395 30.664 105.845 30.5467 106.224 30.312C106.608 30.072 106.907 29.7307 107.12 29.288L108.76 29.808C108.424 30.5813 107.915 31.1813 107.232 31.608C106.549 32.0293 105.789 32.24 104.952 32.24ZM101.872 28.152V26.848H108.04V28.152H101.872Z" fill="white"/>
</svg>
